<svg width="308" height="134" viewBox="0 0 308 134" fill="none" xmlns="http://www.w3.org/2000/svg">
<path fill-rule="evenodd" clip-rule="evenodd" d="M212.152 88.7032C215.328 86.9951 218.584 85.4276 221.837 83.8619C222.235 83.6704 222.633 83.4789 223.03 83.2872L223.142 83.2312C221.984 82.493 220.736 81.9053 219.429 81.4822C216.623 82.8292 213.829 84.1952 211.095 85.6542C209.135 86.6975 207.19 87.7722 205.248 88.8461L204.931 89.0212C205.115 88.8734 205.299 88.7256 205.483 88.5777L205.483 88.5777C206.162 88.0331 206.843 87.4872 207.513 86.9352C209.926 84.9522 212.293 82.9352 214.528 80.7432C213.448 80.7488 212.371 80.8522 211.31 81.0522C210.395 81.2252 209.499 81.4884 208.635 81.8382C207.372 82.9322 206.072 84.0082 204.781 85.0652C204.421 85.3597 204.058 85.6544 203.696 85.9492C203.333 86.2439 202.971 86.5387 202.611 86.8332C200.907 89.4618 199.903 92.4818 199.693 95.6072C200.264 95.2612 200.834 94.9242 201.405 94.6072C203.039 93.7219 204.669 92.8232 206.3 91.9242L206.3 91.9241C208.254 90.847 210.208 89.7694 212.171 88.7142L212.152 88.7032ZM231.579 111.348C237.107 108.87 242.607 106.325 248.08 103.715C248.037 103.763 247.991 103.809 247.945 103.854L247.945 103.854L247.945 103.855C247.902 103.898 247.858 103.941 247.818 103.986L259.318 98.7762C258.829 98.9563 258.338 99.1332 257.848 99.3097L257.847 99.3098C256.912 99.6467 255.979 99.9826 255.071 100.338C254.619 100.512 254.169 100.689 253.719 100.866L253.718 100.866C253.153 101.088 252.589 101.31 252.022 101.526C253.484 100.803 254.952 100.095 256.421 99.3865L256.422 99.3862L257.26 98.9822C257.158 99.0194 257.055 99.0519 256.953 99.0844L256.953 99.0844C256.85 99.1174 256.746 99.1504 256.643 99.1882C250.03 101.498 243.454 103.888 237.042 106.708C234.619 107.774 232.216 108.859 229.802 109.954C230.554 109.561 231.305 109.167 232.056 108.773L232.058 108.772L232.058 108.772C234.772 107.348 237.483 105.925 240.222 104.548C244.724 102.283 249.291 100.163 253.857 98.0438L253.857 98.0438C254.7 97.6525 255.543 97.2613 256.386 96.8692C257.2 96.4886 258.003 96.0872 258.81 95.684L258.81 95.684L258.812 95.6829C259.094 95.5419 259.376 95.4008 259.66 95.2602L259.66 95.2601C259.604 94.6991 259.548 94.1382 259.445 93.5862C256.106 94.6152 252.795 95.7372 249.493 96.8862C242.879 99.1962 236.303 101.586 229.892 104.406C227.47 105.473 225.056 106.555 222.652 107.652C223.405 107.259 224.156 106.864 224.907 106.47C227.621 105.046 230.333 103.623 233.072 102.246C237.573 99.9805 242.141 97.861 246.707 95.7419L246.707 95.7419L246.712 95.7396C247.553 95.3491 248.395 94.9586 249.236 94.5672C251.075 93.7141 252.894 92.8034 254.71 91.8936L254.711 91.8936C255.324 91.5866 255.936 91.2797 256.55 90.9752C256.763 90.9001 256.976 90.8259 257.189 90.7519L257.189 90.7518C257.639 90.5954 258.088 90.4395 258.533 90.2752C258.132 89.2014 257.624 88.1705 257.018 87.1982L256.905 87.253C256.325 87.5348 255.745 87.8169 255.166 88.1052C254.175 88.443 253.18 88.7729 252.186 89.1023L252.186 89.1023L252.186 89.1023C250.318 89.7217 248.455 90.3394 246.636 91.0052C240.621 93.2052 234.681 95.5602 228.844 98.1892C231.69 96.6451 234.589 95.1876 237.487 93.7302C243.315 90.7996 249.144 87.869 254.545 84.2332C253.478 83.2606 252.254 82.4761 250.925 81.9132C245.747 84.4833 240.474 86.842 235.201 89.2012L235.201 89.2012C231.128 91.0231 227.055 92.8453 223.024 94.7652C221.696 95.4012 220.368 96.0372 219.039 96.6922C219.725 96.2487 220.418 95.809 221.113 95.3684C221.531 95.1027 221.95 94.8367 222.369 94.5692C224.783 93.0359 227.199 91.5175 229.618 90.0142C229.244 89.3782 228.835 88.7629 228.393 88.1712L212.398 95.5982L227.024 86.5222C226.935 86.4272 226.85 86.3331 226.764 86.239C226.588 86.0461 226.412 85.8532 226.21 85.6522C225.513 86.0122 224.819 86.37 224.124 86.7277C223.43 87.0855 222.735 87.4432 222.038 87.8032C222.88 87.2792 223.712 86.7372 224.538 86.1852C224.968 85.8952 225.399 85.5852 225.819 85.2782C225.002 84.525 224.119 83.8457 223.181 83.2482C223.141 83.2752 223.1 83.3045 223.06 83.3339L223.059 83.334C223.016 83.3656 222.972 83.3972 222.928 83.4262C220.768 84.9188 218.51 86.276 216.253 87.6325L216.253 87.6325C214.748 88.5371 213.243 89.4414 211.769 90.3852C207.911 92.8402 204.183 95.4941 200.601 98.3362C200.301 98.5702 199.993 98.7945 199.675 99.0092C199.706 99.4702 199.776 99.9241 199.848 100.383C199.862 100.473 199.876 100.564 199.89 100.655C201.91 99.3082 207.569 95.6882 209.075 94.7442C212.51 92.6002 216.089 90.7053 219.664 88.8125L219.664 88.8123C220.363 88.4425 221.061 88.0727 221.758 87.7012C221.852 87.6542 221.958 87.6012 222.048 87.5512C218.69 89.6932 215.36 91.8512 212.048 94.0702C210.183 95.3239 208.356 96.6296 206.529 97.9349L205.837 98.4292C205.643 98.5693 204.105 99.5121 202.642 100.409L202.642 100.409C201.568 101.068 200.535 101.701 200.103 101.974C200.234 102.601 200.365 103.227 200.552 103.854C201.127 103.461 201.696 103.056 202.264 102.653L202.264 102.653C203.274 101.935 204.279 101.221 205.304 100.58C208.739 98.4362 212.318 96.5413 215.893 94.6484L215.893 94.6484L215.893 94.6483C216.592 94.2785 217.29 93.9087 217.987 93.5372L217.987 93.5371C218.081 93.4901 218.187 93.4372 218.277 93.3872C214.919 95.5292 211.589 97.6872 208.277 99.9062C206.412 101.16 204.585 102.466 202.758 103.771L202.066 104.265C201.692 104.527 201.318 104.789 200.934 105.051L222.588 92.3772L201.704 106.849C201.844 107.149 201.994 107.449 202.153 107.738C202.378 107.626 212.302 102.838 218.153 100.517C223.644 98.3382 226.365 98.1972 226.365 98.1972C226.365 98.1972 207.643 107.288 203.752 110.322C203.815 110.408 203.877 110.497 203.939 110.587L203.939 110.587C204.053 110.749 204.168 110.913 204.295 111.07C204.426 111.239 204.573 111.407 204.721 111.576L204.721 111.576C204.827 111.697 204.934 111.819 205.034 111.94C208.706 110.057 212.412 108.241 216.12 106.423L216.121 106.423L216.121 106.423C217.626 105.685 219.131 104.948 220.634 104.205C223.394 102.84 226.137 101.449 228.865 100.033C228.642 100.181 228.416 100.328 228.191 100.475C227.944 100.636 227.697 100.798 227.453 100.959C239.504 95.1102 254.005 89.8812 254.005 89.8812C248.889 93.4262 228.048 102.593 219.04 106.481C215.046 109.053 211.043 111.613 207.03 114.16C207.395 114.562 207.786 114.962 208.172 115.357L208.172 115.357L208.283 115.47C208.3 115.445 208.316 115.422 208.333 115.4L208.333 115.4C208.354 115.372 208.375 115.344 208.395 115.311C210.876 113.92 213.365 112.542 215.854 111.165L215.854 111.165L215.854 111.165C217.915 110.024 219.977 108.883 222.032 107.735C221.943 107.791 221.857 107.85 221.77 107.908C221.684 107.967 221.597 108.025 221.508 108.081C217.762 110.584 214.056 113.149 210.352 115.712L209.255 116.471C209.342 116.562 209.425 116.652 209.508 116.741L209.509 116.742C209.638 116.881 209.767 117.02 209.91 117.163C210.644 116.82 211.353 116.461 212.065 116.101L212.258 116.003C216.374 113.899 220.584 112.009 224.8 110.117L224.8 110.117C225.719 109.704 226.639 109.291 227.558 108.876C231.627 107.043 235.733 105.359 239.877 103.76C239.49 103.954 239.104 104.146 238.718 104.339L238.717 104.339C237.986 104.704 237.257 105.067 236.528 105.434C233.736 106.83 230.912 108.163 228.087 109.496L228.086 109.496C225.385 110.77 222.684 112.045 220.01 113.375C219.349 113.703 218.691 114.038 218.032 114.373L218.032 114.374C216.305 115.252 214.579 116.131 212.798 116.883C212.669 116.938 212.539 116.992 212.41 117.047L212.409 117.047C211.807 117.3 211.201 117.554 210.609 117.846C211.025 118.25 211.456 118.643 211.884 119.035L211.884 119.035L211.885 119.036C212.063 119.197 212.239 119.359 212.414 119.52L236.574 110.784L231.504 113.328C228.661 114.778 225.824 116.237 222.992 117.705C221.471 118.495 219.92 119.237 218.368 119.979L218.368 119.979C217.181 120.547 215.993 121.115 214.817 121.705C215.309 122.141 215.793 122.552 216.277 122.963L216.277 122.963C216.519 123.169 216.762 123.376 217.006 123.585L243.365 112.735C238.793 117.548 218.402 123.201 217.081 123.567L217.015 123.585C217.251 123.786 217.488 123.992 217.725 124.196L217.725 124.197C218.06 124.487 218.393 124.775 218.715 125.044C220.745 124.278 222.766 123.495 224.776 122.696C228.545 121.19 232.352 119.778 236.176 118.421C232.64 120.002 229.105 121.583 225.597 123.229C224.051 123.95 222.483 124.635 220.909 125.322C220.501 125.5 220.094 125.678 219.686 125.857C221.248 127.138 222.726 128.308 224.045 129.337C224.185 129.281 224.326 129.225 224.466 129.178C227.898 127.881 231.35 126.623 234.802 125.365C236.077 124.9 237.353 124.435 238.627 123.968L238.419 124.07C234.625 125.916 230.825 127.765 227.127 129.795C226.749 129.999 226.376 130.209 226.004 130.418C225.898 130.477 225.793 130.536 225.687 130.595C228.11 132.447 229.681 133.56 229.681 133.56C229.681 133.56 237.201 128.2 244.694 121.569L228.404 126.122L247.814 118.722C248.59 117.992 249.357 117.253 250.096 116.515C248.397 117.121 246.692 117.72 244.988 118.319L244.986 118.319L244.984 118.32C243.902 118.7 242.821 119.08 241.742 119.461C240.866 119.812 239.992 120.163 239.118 120.513C238.36 120.817 237.602 121.121 236.842 121.425C232.698 123.081 228.527 124.596 224.318 126.025C224.773 125.82 225.229 125.616 225.683 125.413L225.685 125.412L225.686 125.412C226.37 125.105 227.053 124.8 227.732 124.491C230.577 123.215 233.451 122.002 236.325 120.789L236.325 120.789C239.082 119.624 241.839 118.461 244.569 117.242C245.189 116.964 245.807 116.681 246.425 116.397L246.425 116.397C248.238 115.565 250.051 114.734 251.921 114.042C252.036 113.999 252.151 113.953 252.266 113.906C252.405 113.85 252.545 113.793 252.688 113.742C252.794 113.625 252.9 113.508 253.007 113.391L253.008 113.39C253.726 112.601 254.445 111.811 255.064 111.029C255.86 110.032 256.563 108.965 257.164 107.839C257.084 107.867 257.007 107.895 256.93 107.923C256.852 107.951 256.775 107.979 256.696 108.007C252.952 109.373 249.172 110.636 245.391 111.899L245.391 111.899C243.758 112.445 242.126 112.99 240.495 113.544C237.877 114.433 235.267 115.353 232.666 116.303C235.435 114.891 238.213 113.503 241 112.141C243.74 110.806 246.492 109.495 249.243 108.183C252.005 106.866 254.768 105.549 257.519 104.209L258.894 103.536C258.921 103.445 258.94 103.354 258.958 103.264L258.958 103.264C258.977 103.169 258.996 103.075 259.025 102.984L230.542 111.758L231.562 111.3L231.579 111.348ZM214.892 100.535C215.01 100.486 215.123 100.436 215.236 100.386C215.313 100.351 215.392 100.317 215.472 100.282C217.184 99.5151 219.783 98.242 222.751 96.7881C229.627 93.4199 238.484 89.0812 242.888 87.8142C238.395 92.2637 222.497 97.8625 216.231 100.069L216.231 100.069C215.713 100.252 215.261 100.411 214.887 100.544L214.892 100.535ZM242.599 81.4281C241.783 82.0875 240.965 82.7489 240.11 83.3532C238.211 84.6812 236.257 85.9342 234.283 87.1412C232.789 88.0612 231.299 88.9842 229.812 89.9102C230.551 88.6192 234.993 81.5202 243.393 80.7902C243.128 81.0013 242.864 81.2146 242.599 81.4281Z" fill="#EC1065"/>
<path fill-rule="evenodd" clip-rule="evenodd" d="M11.6072 1.09721C9.53922 1.75569 7.62226 2.81748 5.9671 4.22121C4.47162 5.50174 3.28531 7.1041 2.49705 8.90821C1.69547 10.7517 1.29364 12.7441 1.31803 14.7542C1.28343 16.6972 1.73004 18.6186 2.61805 20.3472C3.50589 21.9971 4.66664 23.4848 6.0511 24.7472C7.53455 26.0976 9.15542 27.2887 10.8872 28.3012C12.6922 29.3672 14.5442 30.3772 16.4343 31.3692C17.2674 31.8065 18.0949 32.2364 18.9144 32.6621C19.9541 33.2023 20.981 33.7357 21.9904 34.2692C23.6889 35.156 25.307 36.1889 26.8264 37.3562C28.1523 38.3698 29.3078 39.5884 30.2495 40.9662C31.1274 42.2935 31.584 43.855 31.5595 45.4462C31.5895 46.7449 31.2522 48.0257 30.5865 49.1412C29.9458 50.2056 29.0886 51.1234 28.0705 51.8352C26.9904 52.5814 25.7961 53.1468 24.5344 53.5092C23.2234 53.8832 21.8666 54.0721 20.5033 54.0702C18.7772 54.0792 17.0603 53.8173 15.4153 53.2942C13.8492 52.7969 12.3787 52.0378 11.0662 51.0492C9.7416 50.0413 8.5861 48.8288 7.64313 47.4572C6.628 45.981 5.84867 44.3559 5.33309 42.6402L0.333013 44.6792C1.013 46.605 1.95053 48.4299 3.12006 50.1042C4.24362 51.6846 5.63292 53.0579 7.22612 54.1632C8.91591 55.3103 10.7838 56.1699 12.7542 56.7072C15.0663 57.3229 17.4519 57.6187 19.8443 57.5862C22.7637 57.6393 25.6726 57.2223 28.4595 56.3512C30.722 55.6375 32.8226 54.4871 34.6426 52.9652C36.2518 51.5944 37.5254 49.873 38.3656 47.9332C39.1949 45.9879 39.6152 43.8928 39.6006 41.7782C39.6235 39.9389 39.162 38.1259 38.2626 36.5212C37.3155 34.9005 36.1192 33.4389 34.7176 32.1902C33.1844 30.8142 31.5174 29.5952 29.7415 28.5512C27.8805 27.4512 25.9724 26.3812 24.0414 25.3512C22.784 24.6805 21.538 24.0225 20.3051 23.3715L20.3044 23.3711L20.3043 23.3711L20.3042 23.371L20.3041 23.3709L20.3016 23.3696L20.3007 23.3691C19.6417 23.0211 18.9865 22.6751 18.3353 22.3302C16.6084 21.4143 14.9453 20.3829 13.3572 19.2432C12.0172 18.2906 10.8256 17.1448 9.82116 15.8432C8.94893 14.6919 8.476 13.2876 8.47414 11.8432C8.47951 10.8083 8.70269 9.78616 9.12915 8.84321C9.57715 7.82847 10.2373 6.92146 11.0652 6.18321C12.0122 5.35105 13.111 4.70963 14.3012 4.29421C15.7674 3.78123 17.3133 3.53402 18.8663 3.56421C20.6588 3.53526 22.4429 3.81362 24.1414 4.38721C25.6435 4.90431 27.0407 5.6867 28.2665 6.69721C29.4764 7.71371 30.5126 8.92051 31.3345 10.2702C32.2255 11.7294 32.9382 13.2903 33.4575 14.9192L38.2096 12.7302C37.5855 10.799 36.7 8.96223 35.5776 7.27121C34.526 5.70554 33.1902 4.35082 31.6395 3.27721C29.9973 2.16423 28.1761 1.3416 26.2554 0.845212C23.9783 0.249812 21.6308 -0.0334452 19.2773 0.00321207C16.6775 -0.0390911 14.0878 0.336701 11.6072 1.11621V1.09721ZM179.11 106.265C174.687 104.357 170.022 102.345 170.022 96.8401L170.033 96.8441C170.033 91.9901 174.308 87.7621 180.556 87.7621C183.869 87.6691 187.095 88.8354 189.582 91.0261L187.945 93.8131C185.883 92.0305 183.27 91.013 180.545 90.9321C176.223 90.9321 173.436 93.7671 173.436 96.7411C173.436 100.424 176.994 101.929 180.841 103.556C185.367 105.47 190.291 107.553 190.291 113.549C190.291 118.6 186.4 122.678 180.058 122.678C178.075 122.707 176.106 122.34 174.267 121.598C172.428 120.856 170.755 119.754 169.348 118.357L171.322 115.813C173.699 118.112 176.855 119.433 180.161 119.513C183.865 119.513 186.886 117.296 186.886 113.648C186.886 109.618 183.097 107.984 179.11 106.265ZM37.8446 105.007C37.8446 114.856 44.9537 122.685 54.9449 122.685C57.338 122.714 59.7129 122.266 61.9308 121.367C64.1487 120.467 66.1651 119.135 67.8621 117.447L65.945 115.09C63.0168 117.961 59.0868 119.582 54.9859 119.608C46.9607 119.608 41.2916 113.032 41.2916 104.96C41.2916 96.8882 46.9647 90.8362 54.8859 90.8362C58.649 90.8278 62.2926 92.1572 65.166 94.5872L66.9431 92.1362C66.9431 92.1362 62.855 87.7682 54.7929 87.7682C45.1397 87.7682 37.8346 95.2132 37.8346 105.016L37.8446 105.007ZM86.0173 96.2141C86.5883 94.6241 87.3173 91.8461 87.3173 91.8461H87.4113C87.4113 91.8461 88.1313 94.6331 88.7113 96.2141L93.1264 108.458H81.4992L86.0173 96.2141ZM85.5873 88.3381L73.1931 122.104H76.7011L80.5432 111.348H94.1364L98.0275 122.105H101.536L89.1433 88.3381H85.5873ZM119.587 91.3121H112.768L112.769 104.903H120.794C124.881 104.903 127.472 102.265 127.472 98.0371C127.472 95.2501 126.359 93.1831 124.395 92.1261C123.387 91.6021 122.178 91.3121 119.587 91.3121ZM109.457 88.3431V88.3381L109.456 88.3431H109.457ZM109.457 122.104V88.3431H119.446C122.907 88.3431 124.441 88.6891 125.788 89.2601C128.959 90.6491 130.876 93.8711 130.876 97.9491C130.876 102.513 128.288 106.021 124.488 107.078V107.166C124.8 107.599 125.087 108.049 125.349 108.513L132.701 122.104H128.901L121.268 107.887H112.768V122.104H109.457ZM142.017 88.3381V122.104H161.904V119.13H145.338V106.587H158.163V103.613H145.338V91.3131H161.039V88.3381H142.017ZM41.4089 2.71121L46.3289 0.611206H48.339V34.2412L65.7843 19.4212H70.2933L54.7091 32.7712L73.9964 56.1712H64.8862L48.339 36.0412V56.1712H41.4089V2.71121ZM105.117 19.4581L94.0045 45.9751L80.3763 19.4581H72.4162L90.4875 54.4581L87.9263 60.426C78.2868 58.1794 67.0838 56.8352 55.1309 56.8352C31.9605 56.8352 11.6172 61.8862 0 68.7702C13.7312 63.8872 33.3455 61.9142 55.1309 61.9142C66.3695 61.9142 77.0328 62.4369 86.6073 63.6146C86.5839 63.6481 86.5619 63.6827 86.5414 63.7181C86.114 64.3368 85.5971 64.8885 85.0074 65.3551C84.4552 65.787 83.7724 66.018 83.0714 66.0101C82.5236 66.0316 81.977 65.9456 81.4623 65.7571C81.0772 65.5922 80.7051 65.3983 80.3493 65.1771C79.9785 64.9511 79.5906 64.7542 79.1893 64.5881C78.626 64.4002 78.0337 64.3145 77.4403 64.3351C76.8478 64.3307 76.2602 64.4418 75.7102 64.6621C75.2098 64.8617 74.7595 65.169 74.3912 65.5621C74.0254 65.9305 73.7389 66.3699 73.5492 66.8531C73.3571 67.3253 73.2586 67.8304 73.2592 68.3401C73.2511 68.9409 73.4062 69.5327 73.7082 70.0521C74.0267 70.5728 74.4426 71.0271 74.9332 71.3901C75.4759 71.7842 76.0859 72.0759 76.7333 72.2511C77.4397 72.4642 78.1745 72.5684 78.9123 72.5601C80.0802 72.5521 81.2381 72.3434 82.3354 71.9431C83.5671 71.4969 84.7161 70.8491 85.7354 70.0261C86.9207 69.0819 87.9718 67.9804 88.8595 66.7521C89.5181 65.9694 90.0373 65.0802 90.3952 64.1235C97.8556 65.214 104.567 66.74 110.262 68.7702C105.406 65.8903 99.0189 63.3312 91.5359 61.3285L108.877 19.4581H105.136H105.117ZM160.36 47.0662L177.113 1.69617H181.864L159.704 61.6432H156.803L142.586 24.5432L128.902 61.6432H125.611L102.732 1.70517H112.45L129.614 46.8922L144.739 6.06617L160.36 47.0662ZM187.346 57.2851C185.612 56.116 184.166 54.568 183.118 52.7581C181.894 50.6575 181.004 48.3793 180.48 46.0051C179.851 43.2944 179.543 40.5189 179.563 37.7361C179.554 35.7882 179.834 33.8497 180.395 31.9841C180.892 30.3067 181.647 28.7165 182.631 27.2701C183.486 26.013 184.579 24.9357 185.849 24.0991C186.976 23.3455 188.3 22.9391 189.656 22.9301C191.915 22.8593 194.147 23.4233 196.101 24.5581C197.875 25.6673 199.342 27.2048 200.366 29.0291C201.521 31.1049 202.32 33.3589 202.732 35.6981C203.24 38.3996 203.487 41.1435 203.471 43.8921C203.485 45.8397 203.224 47.7795 202.695 49.6541C202.235 51.357 201.509 52.9768 200.544 54.4541C199.687 55.7659 198.563 56.8816 197.244 57.7281C195.99 58.5368 194.527 58.9624 193.035 58.9531C191.017 58.9814 189.036 58.4046 187.348 57.2971L187.346 57.2851ZM183.248 21.6041C180.775 22.6803 178.545 24.2449 176.691 26.2041C174.833 28.1835 173.373 30.5016 172.391 33.0321C171.342 35.7041 170.815 38.552 170.838 41.4221C170.819 44.1555 171.347 46.8651 172.391 49.3911C173.389 51.8444 174.863 54.0756 176.729 55.9556C178.595 57.8356 180.814 59.3272 183.26 60.3441C185.889 61.4447 188.716 61.9953 191.566 61.9621C194.409 61.9914 197.224 61.3911 199.807 60.2041C202.289 59.0627 204.518 57.4376 206.364 55.4241C208.241 53.3716 209.71 50.9817 210.696 48.3811C211.744 45.6247 212.271 42.6972 212.249 39.7481C212.264 37.1323 211.752 34.5401 210.741 32.1274C209.73 29.7148 208.241 27.5313 206.365 25.7081C204.478 23.8799 202.251 22.4403 199.808 21.4711C197.188 20.4268 194.388 19.9056 191.567 19.9371C188.712 19.9095 185.882 20.4779 183.258 21.6061L183.248 21.6041ZM227.548 22.4331C228.458 21.6971 229.457 21.0779 230.522 20.5901L230.514 20.5651C231.507 20.1272 232.58 19.8982 233.666 19.8921C234.496 19.8819 235.323 20.0173 236.107 20.2921C236.816 20.5317 237.48 20.889 238.071 21.3491C238.608 21.7691 239.053 22.2941 239.381 22.8921C239.693 23.4527 239.857 24.0835 239.858 24.7251C239.896 25.2782 239.806 25.8325 239.595 26.3451C239.384 26.8577 239.058 27.3149 238.642 27.6811C237.68 28.402 236.492 28.7565 235.293 28.6811C234.565 28.7036 233.839 28.6087 233.142 28.4001C232.634 28.2328 232.142 28.0199 231.673 27.7641C231.248 27.5296 230.811 27.3173 230.364 27.1281C229.823 26.923 229.248 26.8275 228.671 26.8471C228.111 26.8594 227.565 27.021 227.089 27.3151C226.501 27.6682 225.969 28.1063 225.508 28.6151C224.921 29.236 224.383 29.902 223.899 30.6071C223.356 31.3831 222.805 32.2231 222.262 33.1231V61.0531H214.321V20.7081H222.253V28.3451C223.038 27.2309 223.877 26.1569 224.769 25.1271C225.615 24.1495 226.544 23.248 227.548 22.4331ZM246.461 0.0592041L241.597 2.3692L241.606 61.0532H248.415L248.407 0.0592041H246.461ZM263.157 52.1772C264.181 53.755 265.522 55.1025 267.095 56.1342L267.079 56.1252C268.149 56.815 269.353 57.2693 270.611 57.4579C271.87 57.6465 273.154 57.5651 274.379 57.2192C275.195 56.996 275.984 56.6887 276.736 56.3022C277.471 55.921 278.174 55.4799 278.836 54.9832C279.452 54.5156 280.022 53.9895 280.536 53.4122V33.5232C280.561 32.0952 280.298 30.6768 279.763 29.3527C279.228 28.0286 278.431 26.8258 277.421 25.8162C276.517 24.9055 275.447 24.1755 274.269 23.6652C273.154 23.1742 271.951 22.9163 270.733 22.9072C269.193 22.905 267.68 23.3197 266.356 24.1072C264.94 24.9488 263.724 26.0881 262.792 27.4462C261.72 29.0079 260.914 30.7367 260.407 32.5622C259.806 34.6982 259.513 36.9092 259.537 39.1282C259.521 41.5567 259.849 43.9753 260.51 46.3122C261.091 48.3896 261.984 50.367 263.157 52.1772ZM280.555 2.36017L285.999 0.0501709H288.3V61.9442H280.555V57.1082C279.633 57.8607 278.651 58.5363 277.618 59.1282C276.576 59.727 275.484 60.2339 274.354 60.6432C273.234 61.0535 272.083 61.3726 270.912 61.5972C269.798 61.8242 268.663 61.9401 267.526 61.9432C265.256 61.9487 263.022 61.3757 261.035 60.2782C258.992 59.1606 257.197 57.6395 255.76 55.8072C254.229 53.8411 253.034 51.6349 252.224 49.2782C251.348 46.7452 250.909 44.0821 250.924 41.4022C250.923 39.5841 251.171 37.7745 251.663 36.0242C252.155 34.2651 252.851 32.5698 253.738 30.9732C255.548 27.7725 258.106 25.0575 261.193 23.0602C262.724 22.0747 264.379 21.2947 266.113 20.7402C267.879 20.1766 269.722 19.8925 271.575 19.8982C273.295 19.866 275.001 20.2143 276.57 20.9182C278.034 21.6135 279.379 22.5352 280.555 23.6492V2.36017ZM301.222 3.7029H299.978L299.979 6.1169H301.223C301.385 6.12464 301.546 6.09753 301.697 6.03742C301.847 5.9773 301.983 5.88558 302.094 5.76847C302.206 5.65136 302.292 5.51159 302.345 5.35863C302.398 5.20567 302.417 5.04309 302.402 4.8819C302.416 4.7234 302.396 4.56371 302.341 4.41411C302.287 4.26451 302.201 4.12867 302.088 4.01619C301.976 3.90371 301.84 3.81735 301.69 3.76321C301.54 3.70907 301.381 3.68848 301.222 3.7029ZM299.024 9.5679V2.9029L299.026 2.8989H301.402C301.667 2.88308 301.933 2.92341 302.182 3.01723C302.43 3.11106 302.657 3.25629 302.845 3.44342C303.034 3.63056 303.181 3.8554 303.277 4.10327C303.373 4.35114 303.416 4.61645 303.402 4.8819C303.422 5.27328 303.309 5.65991 303.082 5.97903C302.854 6.29816 302.526 6.53105 302.149 6.6399V6.6779C302.232 6.79758 302.307 6.92251 302.373 7.0519L303.654 9.5679H302.597L301.259 6.8679H299.978V9.5679H299.024ZM296.339 4.24218C296.098 4.87737 295.987 5.55418 296.012 6.2329C295.978 6.9145 296.083 7.59586 296.32 8.23584C296.557 8.87581 296.921 9.46113 297.391 9.95645C297.86 10.4518 298.425 10.8468 299.052 11.1178C299.678 11.3887 300.353 11.5299 301.035 11.5329C301.722 11.5299 302.402 11.3894 303.034 11.1198C303.666 10.8502 304.237 10.4568 304.715 9.96297C305.193 9.4691 305.567 8.88467 305.815 8.24408C306.063 7.60348 306.181 6.91967 306.161 6.2329C306.176 5.54825 306.054 4.86753 305.804 4.2302C305.553 3.59286 305.179 3.01157 304.702 2.52C304.225 2.02843 303.655 1.63636 303.026 1.3665C302.397 1.09664 301.72 0.95436 301.035 0.947897C300.356 0.957702 299.686 1.10305 299.064 1.3754C298.441 1.64775 297.88 2.04163 297.412 2.53392C296.944 3.0262 296.579 3.60699 296.339 4.24218ZM295.425 8.58867C295.13 7.83906 294.986 7.03839 295.002 6.2329C294.981 5.422 295.123 4.61514 295.419 3.85989C295.715 3.10464 296.159 2.41628 296.725 1.83539C297.291 1.2545 297.968 0.792835 298.716 0.477616C299.463 0.162397 300.266 4.8869e-10 301.077 4.8869e-10C301.888 4.8869e-10 302.691 0.162397 303.439 0.477616C304.186 0.792835 304.863 1.2545 305.429 1.83539C305.995 2.41628 306.439 3.10464 306.735 3.85989C307.031 4.61514 307.173 5.422 307.152 6.2329C307.159 7.04305 307.007 7.84667 306.703 8.59782C306.399 9.34896 305.951 10.0329 305.383 10.6106C304.815 11.1882 304.138 11.6482 303.392 11.9644C302.646 12.2805 301.845 12.4465 301.035 12.4529C300.229 12.4442 299.434 12.276 298.693 11.958C297.953 11.6401 297.283 11.1786 296.722 10.6003C296.161 10.022 295.72 9.33827 295.425 8.58867Z" fill="#F0BD89"/>
</svg>
